Metropolis-RegularItalic.ufo
<glyph name="quotesingle" format="2">
	<advance width="219"/>
	<unicode hex="0027"/>
	<outline>
		<contour>
			<point x="124" y="429" type="curve"/>
			<point x="124" y="429" type="line"/>
			<point x="168" y="429" type="line"/>
			<point x="185" y="478"/>
			<point x="234" y="613"/>
			<point x="234" y="642" type="curve"/>
			<point x="234" y="659"/>
			<point x="219" y="675"/>
			<point x="197" y="675" type="curve"/>
			<point x="140" y="675"/>
			<point x="135" y="613"/>
			<point x="131" y="544" type="curve"/>
			<point x="128" y="504"/>
			<point x="126" y="461"/>
		</contour>
	</outline>
</glyph>
<glyph name="plus" format="2">
	<advance width="582"/>
	<unicode hex="002B"/>
	<outline>
		<contour>
			<point x="85" y="371" type="line"/>
			<point x="69" y="297" type="line"/>
			<point x="528" y="297" type="line"/>
			<point x="544" y="371" type="line"/>
		</contour>
		<contour>
			<point x="317" y="564" type="line"/>
			<point x="221" y="105" type="line"/>
			<point x="296" y="105" type="line"/>
			<point x="392" y="564" type="line"/>
		</contour>
	</outline>
</glyph>
<glyph name="hyphen" format="2">
	<advance width="356"/>
	<unicode hex="002D"/>
	<outline>
		<contour>
			<point x="59" y="308" type="line"/>
			<point x="43" y="235" type="line"/>
			<point x="302" y="235" type="line"/>
			<point x="318" y="308" type="line"/>
		</contour>
	</outline>
</glyph>
<glyph name="zero" format="2">
	<advance width="684"/>
	<unicode hex="0030"/>
	<outline>
		<contour>
			<point x="291" y="-12" type="curve"/>
			<point x="291" y="-12" type="line"/>
			<point x="503" y="-12"/>
			<point x="655" y="218"/>
			<point x="655" y="440" type="curve"/>
			<point x="655" y="596"/>
			<point x="569" y="699"/>
			<point x="428" y="699" type="curve"/>
			<point x="217" y="699"/>
			<point x="64" y="469"/>
			<point x="64" y="248" type="curve"/>
			<point x="64" y="91"/>
			<point x="150" y="-12"/>
		</contour>
		<contour>
			<point x="295" y="60" type="curve"/>
			<point x="295" y="60" type="line"/>
			<point x="199" y="60"/>
			<point x="142" y="136"/>
			<point x="142" y="251" type="curve"/>
			<point x="142" y="422"/>
			<point x="259" y="627"/>
			<point x="424" y="627" type="curve"/>
			<point x="520" y="627"/>
			<point x="577" y="552"/>
			<point x="577" y="438" type="curve"/>
			<point x="577" y="265"/>
			<point x="461" y="60"/>
		</contour>
	</outline>
</glyph>
<glyph name="one" format="2">
	<advance width="355"/>
	<unicode hex="0031"/>
	<outline>
		<contour>
			<point x="269" y="592" type="line"/>
			<point x="145" y="0" type="line"/>
			<point x="223" y="0" type="line"/>
			<point x="366" y="687" type="line"/>
			<point x="303" y="687" type="line"/>
			<point x="111" y="572" type="line"/>
			<point x="134" y="514" type="line"/>
		</contour>
	</outline>
</glyph>
<glyph name="B" format="2">
	<advance width="661"/>
	<unicode hex="0042"/>
	<outline>
		<contour>
			<point x="167" y="687" type="line"/>
			<point x="24" y="0" type="line"/>
			<point x="354" y="0" type="line" smooth="yes"/>
			<point x="486" y="0"/>
			<point x="597" y="101"/>
			<point x="597" y="220" type="curve"/>
			<point x="597" y="273"/>
			<point x="559" y="332"/>
			<point x="506" y="362" type="curve"/>
			<point x="590" y="405"/>
			<point x="639" y="474"/>
			<point x="639" y="547" type="curve"/>
			<point x="639" y="629"/>
			<point x="573" y="687"/>
			<point x="480" y="687" type="curve"/>
		</contour>
		<contour>
			<point x="343" y="71" type="curve"/>
			<point x="117" y="71" type="line"/>
			<point x="170" y="325" type="line"/>
			<point x="402" y="325" type="line" smooth="yes"/>
			<point x="472" y="325"/>
			<point x="522" y="285"/>
			<point x="522" y="229" type="curve"/>
			<point x="522" y="143"/>
			<point x="440" y="71"/>
		</contour>
		<contour>
			<point x="399" y="396" type="curve"/>
			<point x="185" y="396" type="line"/>
			<point x="231" y="616" type="line"/>
			<point x="450" y="616" type="line" smooth="yes"/>
			<point x="513" y="616"/>
			<point x="558" y="582"/>
			<point x="558" y="533" type="curve"/>
			<point x="558" y="459"/>
			<point x="485" y="396"/>
		</contour>
	</outline>
</glyph>
<glyph name="D" format="2">
	<advance width="737"/>
	<unicode hex="0044"/>
	<anchor x="397" y="687" name="top"/>
	<outline>
		<contour>
			<point x="167" y="687" type="line"/>
			<point x="24" y="0" type="line"/>
			<point x="259" y="0" type="line" smooth="yes"/>
			<point x="502" y="0"/>
			<point x="707" y="189"/>
			<point x="707" y="414" type="curve"/>
			<point x="707" y="574"/>
			<point x="579" y="687"/>
			<point x="397" y="687" type="curve"/>
		</contour>
		<contour>
			<point x="268" y="71" type="curve"/>
			<point x="117" y="71" type="line"/>
			<point x="231" y="616" type="line"/>
			<point x="387" y="616" type="line" smooth="yes"/>
			<point x="528" y="616"/>
			<point x="628" y="530"/>
			<point x="628" y="409" type="curve"/>
			<point x="628" y="226"/>
			<point x="463" y="71"/>
		</contour>
	</outline>
</glyph>
<glyph name="L" format="2">
	<advance width="580"/>
	<unicode hex="004C"/>
	<anchor x="206" y="687" name="top"/>
	<outline>
		<contour>
			<point x="167" y="687" type="line"/>
			<point x="24" y="0" type="line"/>
			<point x="477" y="0" type="line"/>
			<point x="493" y="74" type="line"/>
			<point x="96" y="74" type="line"/>
			<point x="114" y="50" type="line"/>
			<point x="245" y="687" type="line"/>
		</contour>
	</outline>
</glyph>
<glyph name="X" format="2">
	<advance width="720"/>
	<unicode hex="0058"/>
	<outline>
		<contour>
			<point x="615" y="0" type="line"/>
			<point x="522" y="0" type="line"/>
			<point x="140" y="687" type="line"/>
			<point x="233" y="687" type="line"/>
		</contour>
		<contour>
			<point x="92" y="0" type="line"/>
			<point x="-6" y="0" type="line"/>
			<point x="663" y="687" type="line"/>
			<point x="761" y="687" type="line"/>
		</contour>
	</outline>
</glyph>
<glyph name="Y" format="2">
	<advance width="727"/>
	<unicode hex="0059"/>
	<anchor x="444" y="687" name="top"/>
	<outline>
		<contour>
			<point x="328" y="280" type="line"/>
			<point x="268" y="0" type="line"/>
			<point x="350" y="0" type="line"/>
			<point x="410" y="280" type="line"/>
			<point x="770" y="687" type="line"/>
			<point x="674" y="687" type="line"/>
			<point x="375" y="347" type="line"/>
			<point x="214" y="687" type="line"/>
			<point x="135" y="687" type="line"/>
		</contour>
	</outline>
</glyph>
<glyph name="underscore" format="2">
	<advance width="692"/>
	<unicode hex="005F"/>
	<outline>
		<contour>
			<point x="-21" y="-75" type="line"/>
			<point x="-35" y="-142" type="line"/>
			<point x="561" y="-142" type="line"/>
			<point x="575" y="-75" type="line"/>
		</contour>
	</outline>
</glyph>
<glyph name="grave" format="2">
	<advance width="258"/>
	<unicode hex="0060"/>
	<anchor x="289" y="704" name="top"/>
	<anchor x="251" y="517" name="_top"/>
	<outline>
		<contour>
			<point x="122" y="702" type="line"/>
			<point x="238" y="576" type="line"/>
			<point x="294" y="576" type="line"/>
			<point x="203" y="720" type="line"/>
		</contour>
	</outline>
</glyph>
<glyph name="b" format="2">
	<advance width="597"/>
	<unicode hex="0062"/>
	<outline>
		<contour>
			<point x="261" y="-12" type="curve"/>
			<point x="261" y="-12" type="line"/>
			<point x="427" y="-12"/>
			<point x="567" y="142"/>
			<point x="567" y="324" type="curve"/>
			<point x="567" y="435"/>
			<point x="478" y="529"/>
			<point x="373" y="529" type="curve"/>
			<point x="218" y="529"/>
			<point x="88" y="373"/>
			<point x="88" y="187" type="curve"/>
			<point x="88" y="79"/>
			<point x="167" y="-12"/>
		</contour>
		<contour>
			<point x="274" y="55" type="curve"/>
			<point x="274" y="55" type="line"/>
			<point x="194" y="55"/>
			<point x="127" y="121"/>
			<point x="127" y="199" type="curve"/>
			<point x="127" y="342"/>
			<point x="233" y="462"/>
			<point x="359" y="462" type="curve"/>
			<point x="430" y="462"/>
			<point x="489" y="396"/>
			<point x="489" y="318" type="curve"/>
			<point x="489" y="175"/>
			<point x="391" y="55"/>
		</contour>
		<contour>
			<point x="150" y="699" type="line"/>
			<point x="5" y="0" type="line"/>
			<point x="80" y="0" type="line"/>
			<point x="225" y="699" type="line"/>
		</contour>
	</outline>
</glyph>
<glyph name="o" format="2">
	<advance width="606"/>
	<unicode hex="006F"/>
	<anchor x="353" y="517" name="top"/>
	<outline>
		<contour>
			<point x="245" y="-12" type="curve"/>
			<point x="245" y="-12" type="line"/>
			<point x="424" y="-12"/>
			<point x="575" y="135"/>
			<point x="575" y="309" type="curve"/>
			<point x="575" y="428"/>
			<point x="475" y="529"/>
			<point x="357" y="529" type="curve"/>
			<point x="180" y="529"/>
			<point x="31" y="382"/>
			<point x="31" y="208" type="curve"/>
			<point x="31" y="89"/>
			<point x="129" y="-12"/>
		</contour>
		<contour>
			<point x="259" y="55" type="curve"/>
			<point x="259" y="55" type="line"/>
			<point x="178" y="55"/>
			<point x="109" y="127"/>
			<point x="109" y="213" type="curve"/>
			<point x="109" y="348"/>
			<point x="216" y="462"/>
			<point x="343" y="462" type="curve"/>
			<point x="427" y="462"/>
			<point x="497" y="389"/>
			<point x="497" y="303" type="curve"/>
			<point x="497" y="168"/>
			<point x="388" y="55"/>
		</contour>
	</outline>
</glyph>
<glyph name="p" format="2">
	<advance width="597"/>
	<unicode hex="0070"/>
	<outline>
		<contour>
			<point x="112" y="517" type="line"/>
			<point x="-31" y="-172" type="line"/>
			<point x="44" y="-172" type="line"/>
			<point x="187" y="517" type="line"/>
		</contour>
		<contour>
			<point x="261" y="-12" type="curve"/>
			<point x="261" y="-12" type="line"/>
			<point x="427" y="-12"/>
			<point x="567" y="142"/>
			<point x="567" y="324" type="curve"/>
			<point x="567" y="435"/>
			<point x="478" y="529"/>
			<point x="373" y="529" type="curve"/>
			<point x="218" y="529"/>
			<point x="88" y="373"/>
			<point x="88" y="187" type="curve"/>
			<point x="88" y="79"/>
			<point x="167" y="-12"/>
		</contour>
		<contour>
			<point x="274" y="55" type="curve"/>
			<point x="274" y="55" type="line"/>
			<point x="194" y="55"/>
			<point x="127" y="121"/>
			<point x="127" y="199" type="curve"/>
			<point x="127" y="342"/>
			<point x="233" y="462"/>
			<point x="359" y="462" type="curve"/>
			<point x="430" y="462"/>
			<point x="489" y="396"/>
			<point x="489" y="318" type="curve"/>
			<point x="489" y="175"/>
			<point x="391" y="55"/>
		</contour>
	</outline>
</glyph>
<glyph name="s" format="2">
	<advance width="464"/>
	<unicode hex="0073"/>
	<anchor x="292" y="517" name="top"/>
	<anchor x="184" y="0" name="bottom"/>
	<outline>
		<contour>
			<point x="191" y="-12" type="curve"/>
			<point x="191" y="-12" type="line"/>
			<point x="309" y="-12"/>
			<point x="409" y="70"/>
			<point x="409" y="168" type="curve"/>
			<point x="409" y="226"/>
			<point x="368" y="262"/>
			<point x="264" y="294" type="curve"/>
			<point x="184" y="324"/>
			<point x="152" y="345"/>
			<point x="152" y="369" type="curve"/>
			<point x="152" y="423"/>
			<point x="206" y="462"/>
			<point x="282" y="462" type="curve"/>
			<point x="327" y="462"/>
			<point x="378" y="445"/>
			<point x="418" y="415" type="curve"/>
			<point x="462" y="469" type="line"/>
			<point x="411" y="507"/>
			<point x="345" y="529"/>
			<point x="285" y="529" type="curve"/>
			<point x="163" y="529"/>
			<point x="76" y="457"/>
			<point x="76" y="354" type="curve"/>
			<point x="76" y="298"/>
			<point x="119" y="263"/>
			<point x="226" y="232" type="curve"/>
			<point x="302" y="207"/>
			<point x="333" y="185"/>
			<point x="333" y="155" type="curve"/>
			<point x="333" y="101"/>
			<point x="269" y="55"/>
			<point x="194" y="55" type="curve"/>
			<point x="141" y="55"/>
			<point x="82" y="78"/>
			<point x="36" y="118" type="curve"/>
			<point x="-11" y="67" type="line"/>
			<point x="42" y="17"/>
			<point x="117" y="-12"/>
		</contour>
	</outline>
</glyph>
<glyph name="t" format="2">
	<advance width="365"/>
	<unicode hex="0074"/>
	<anchor x="179" y="0" name="bottom"/>
	<outline>
		<contour>
			<point x="186" y="-12" type="curve"/>
			<point x="186" y="-12" type="line"/>
			<point x="219" y="-12"/>
			<point x="254" y="-2"/>
			<point x="286" y="19" type="curve"/>
			<point x="256" y="78" type="line"/>
			<point x="244" y="66"/>
			<point x="220" y="55"/>
			<point x="194" y="55" type="curve"/>
			<point x="171" y="55"/>
			<point x="155" y="72"/>
			<point x="155" y="100" type="curve"/>
			<point x="155" y="110"/>
			<point x="150" y="82"/>
			<point x="270" y="659" type="curve"/>
			<point x="195" y="659" type="line"/>
			<point x="86" y="138"/>
			<point x="80" y="121"/>
			<point x="80" y="92" type="curve"/>
			<point x="80" y="31"/>
			<point x="121" y="-12"/>
		</contour>
		<contour>
			<point x="84" y="517" type="line"/>
			<point x="70" y="450" type="line"/>
			<point x="353" y="450" type="line"/>
			<point x="367" y="517" type="line"/>
		</contour>
	</outline>
</glyph>
<glyph name="w" format="2">
	<advance width="823"/>
	<unicode hex="0077"/>
	<anchor x="464" y="517" name="top"/>
	<outline>
		<contour>
			<point x="83" y="517" type="line"/>
			<point x="148" y="0" type="line"/>
			<point x="219" y="0" type="line"/>
			<point x="445" y="413" type="line"/>
			<point x="495" y="0" type="line"/>
			<point x="566" y="0" type="line"/>
			<point x="848" y="517" type="line"/>
			<point x="766" y="517" type="line"/>
			<point x="550" y="100" type="line"/>
			<point x="496" y="517" type="line"/>
			<point x="431" y="517" type="line"/>
			<point x="203" y="100" type="line"/>
			<point x="161" y="517" type="line"/>
		</contour>
	</outline>
</glyph>
<glyph name="y" format="2">
	<advance width="572"/>
	<unicode hex="0079"/>
	<anchor x="344" y="517" name="top"/>
	<outline>
		<contour>
			<point x="64" y="-180" type="curve"/>
			<point x="64" y="-180" type="line"/>
			<point x="131" y="-180"/>
			<point x="188" y="-149"/>
			<point x="242" y="-61" type="curve"/>
			<point x="598" y="517" type="line"/>
			<point x="515" y="517" type="line"/>
			<point x="254" y="87" type="line"/>
			<point x="163" y="517" type="line"/>
			<point x="82" y="517" type="line"/>
			<point x="198" y="-2" type="line"/>
			<point x="153" y="-63" type="line"/>
			<point x="126" y="-99"/>
			<point x="100" y="-112"/>
			<point x="64" y="-112" type="curve"/>
			<point x="46" y="-112"/>
			<point x="25" y="-109"/>
			<point x="9" y="-100" type="curve"/>
			<point x="-17" y="-162" type="line"/>
			<point x="5" y="-173"/>
			<point x="32" y="-180"/>
		</contour>
	</outline>
</glyph>
<glyph name="z" format="2">
	<advance width="480"/>
	<unicode hex="007A"/>
	<anchor x="300" y="517" name="top"/>
	<outline>
		<contour>
			<point x="-6" y="59" type="line"/>
			<point x="-17" y="0" type="line"/>
			<point x="390" y="0" type="line"/>
			<point x="405" y="71" type="line"/>
			<point x="98" y="71" type="line"/>
			<point x="485" y="458" type="line"/>
			<point x="496" y="517" type="line"/>
			<point x="96" y="517" type="line"/>
			<point x="81" y="446" type="line"/>
			<point x="379" y="446" type="line"/>
		</contour>
	</outline>
</glyph>
<glyph name="macron" format="2">
	<advance width="404"/>
	<unicode hex="00AF"/>
	<anchor x="291" y="704" name="top"/>
	<anchor x="253" y="517" name="_top"/>
	<outline>
		<contour>
			<point x="128" y="649" type="line"/>
			<point x="117" y="594" type="line"/>
			<point x="427" y="594" type="line"/>
			<point x="438" y="649" type="line"/>
		</contour>
	</outline>
</glyph>
<glyph name="paragraph" format="2">
	<advance width="621"/>
	<unicode hex="00B6"/>
	<outline>
		<contour>
			<point x="303" y="297" type="curve"/>
			<point x="228" y="-50" type="line"/>
			<point x="290" y="-50" type="line"/>
			<point x="431" y="629" type="line"/>
			<point x="548" y="629" type="line"/>
			<point x="407" y="-50" type="line"/>
			<point x="469" y="-50" type="line"/>
			<point x="622" y="687" type="line"/>
			<point x="366" y="687" type="line"/>
			<point x="227" y="687"/>
			<point x="107" y="591"/>
			<point x="107" y="456" type="curve"/>
			<point x="107" y="361"/>
			<point x="181" y="297"/>
		</contour>
	</outline>
</glyph>
<glyph name="thorn" format="2">
	<advance width="599"/>
	<unicode hex="00FE"/>
	<outline>
		<contour>
			<point x="151" y="699" type="line"/>
			<point x="-30" y="-172" type="line"/>
			<point x="45" y="-172" type="line"/>
			<point x="226" y="699" type="line"/>
		</contour>
		<contour>
			<point x="263" y="-12" type="curve"/>
			<point x="263" y="-12" type="line"/>
			<point x="429" y="-12"/>
			<point x="569" y="142"/>
			<point x="569" y="324" type="curve"/>
			<point x="569" y="435"/>
			<point x="480" y="529"/>
			<point x="375" y="529" type="curve"/>
			<point x="220" y="529"/>
			<point x="90" y="373"/>
			<point x="90" y="187" type="curve"/>
			<point x="90" y="79"/>
			<point x="169" y="-12"/>
		</contour>
		<contour>
			<point x="276" y="55" type="curve"/>
			<point x="276" y="55" type="line"/>
			<point x="196" y="55"/>
			<point x="129" y="121"/>
			<point x="129" y="199" type="curve"/>
			<point x="129" y="342"/>
			<point x="235" y="462"/>
			<point x="361" y="462" type="curve"/>
			<point x="432" y="462"/>
			<point x="491" y="396"/>
			<point x="491" y="318" type="curve"/>
			<point x="491" y="175"/>
			<point x="393" y="55"/>
		</contour>
	</outline>
</glyph>
<glyph name="Lslash" format="2">
	<advance width="639"/>
	<unicode hex="0141"/>
	<anchor x="265" y="687" name="top"/>
	<outline>
		<contour>
			<point x="60" y="309" type="line"/>
			<point x="46" y="234" type="line"/>
			<point x="377" y="388" type="line"/>
			<point x="391" y="463" type="line"/>
		</contour>
		<contour>
			<point x="226" y="687" type="line"/>
			<point x="83" y="0" type="line"/>
			<point x="536" y="0" type="line"/>
			<point x="552" y="74" type="line"/>
			<point x="155" y="74" type="line"/>
			<point x="173" y="50" type="line"/>
			<point x="304" y="687" type="line"/>
		</contour>
	</outline>
</glyph>
<glyph name="caron" format="2">
	<advance width="334"/>
	<unicode hex="02C7"/>
	<anchor x="258" y="704" name="top"/>
	<anchor x="219" y="517" name="_top"/>
	<outline>
		<contour>
			<point x="126" y="713" type="line"/>
			<point x="197" y="576" type="line"/>
			<point x="267" y="576" type="line"/>
			<point x="398" y="713" type="line"/>
			<point x="338" y="713" type="line"/>
			<point x="240" y="627" type="line"/>
			<point x="181" y="713" type="line"/>
		</contour>
	</outline>
</glyph>
<glyph name="minus" format="2">
	<advance width="614"/>
	<unicode hex="2212"/>
	<outline>
		<contour>
			<point x="101" y="371" type="line"/>
			<point x="85" y="297" type="line"/>
			<point x="544" y="297" type="line"/>
			<point x="560" y="371" type="line"/>
		</contour>
	</outline>
</glyph>
<glyph name="ae_upper" format="2">
	<advance width="489"/>
	<anchor x="483" y="687" name="_ae_upper"/>
	<outline>
		<contour>
			<point x="489" y="687" type="line"/>
			<point x="-51" y="0" type="line"/>
			<point x="42" y="0" type="line"/>
			<point x="581" y="687" type="line"/>
		</contour>
		<contour>
			<point x="144" y="230" type="line"/>
			<point x="129" y="156" type="line"/>
			<point x="448" y="156" type="line"/>
			<point x="463" y="230" type="line"/>
		</contour>
	</outline>
</glyph>
<glyph name="lowercase_m_shoulder" format="2">
	<advance width="530"/>
	<anchor x="94" y="326" name="_shoulder"/>
	<anchor x="428" y="326" name="shoulder"/>
	<outline>
		<contour>
			<point x="285" y="0" type="curve"/>
			<point x="285" y="0" type="line"/>
			<point x="360" y="0" type="line"/>
			<point x="427" y="320"/>
			<point x="434" y="344"/>
			<point x="434" y="376" type="curve"/>
			<point x="434" y="467"/>
			<point x="375" y="529"/>
			<point x="282" y="529" type="curve"/>
			<point x="193" y="529"/>
			<point x="114" y="472"/>
			<point x="90" y="382" type="curve"/>
			<point x="94" y="326" type="line"/>
			<point x="110" y="406"/>
			<point x="188" y="462"/>
			<point x="264" y="462" type="curve"/>
			<point x="326" y="462"/>
			<point x="357" y="424"/>
			<point x="357" y="359" type="curve"/>
			<point x="357" y="339"/>
			<point x="354" y="331"/>
		</contour>
	</outline>
</glyph>
<glyph name="lowercase_r_shoulder" format="2">
	<advance width="308"/>
	<anchor x="77" y="287" name="_r_shoulder"/>
	<outline>
		<contour>
			<point x="73" y="342" type="curve"/>
			<point x="77" y="287" type="line"/>
			<point x="98" y="388"/>
			<point x="199" y="462"/>
			<point x="316" y="462" type="curve"/>
			<point x="325" y="529" type="line"/>
			<point x="198" y="529"/>
			<point x="96" y="453"/>
		</contour>
	</outline>
</glyph>
